<svg xmlns="http://www.w3.org/2000/svg" viewBox="0 0 106.05 106.05"><defs><style>.cls-1{fill:#05738c;}.cls-2{fill:#fff;}</style></defs><title>bus boardAsset 3</title><g id="Layer_2" data-name="Layer 2"><g id="Layer_1-2" data-name="Layer 1"><path class="cls-1" d="M106.05,53A53,53,0,1,1,53,0,53,53,0,0,1,106.05,53Z"/><path class="cls-2" d="M80.09,50.85v1q0,9.49,0,19c0,3.43-1.81,5.49-5.21,5.93l-.29.09V79.4c0,2.57-1.42,4-4,4H69.12a3.52,3.52,0,0,1-3.53-3.47c0-1,0-2,0-3H40.5c0,.2,0,.42,0,.63,0,.86,0,1.72,0,2.58a3.52,3.52,0,0,1-3.35,3.29c-.75,0-1.49,0-2.24,0a3.53,3.53,0,0,1-3.4-3.46c0-.86,0-1.72,0-2.57,0-.35-.06-.52-.46-.58A5.39,5.39,0,0,1,26,71V50.84H24.67a3.21,3.21,0,0,1-2.58-1.26,1,1,0,0,0-.72-.32A2.06,2.06,0,0,1,19.14,47q0-3.42,0-6.84a2.06,2.06,0,0,1,2.26-2.28.89.89,0,0,0,.63-.22,3.34,3.34,0,0,1,3-1.38c.26,0,.53,0,.91,0V28.36a5.42,5.42,0,0,1,5.7-5.7q21.39,0,42.77,0a5.42,5.42,0,0,1,5.67,5.66c0,2.6,0,5.2,0,7.91h1.07A3.25,3.25,0,0,1,84,37.58a.92.92,0,0,0,.62.25,2.08,2.08,0,0,1,2.3,2.38v6.71a2.06,2.06,0,0,1-2.27,2.33.88.88,0,0,0-.63.24,3.28,3.28,0,0,1-2.94,1.36Zm-4.82-21a3.79,3.79,0,0,0-.49-.09q-8.44-1.08-17-1.32a174,174,0,0,0-26.51,1.3c-.44,0-.57.21-.56.64,0,2,0,4,0,6V51.07c0,1.07.33,1.45,1.4,1.62l.47.06c5.39.38,10.76.9,16.15,1.12a155.41,155.41,0,0,0,25-1.17c1.2-.14,1.52-.52,1.52-1.71V29.8ZM68.06,72.73a5.32,5.32,0,1,0-5.38-5.31A5.35,5.35,0,0,0,68.06,72.73Zm-30,0a5.32,5.32,0,1,0-5.33-5.28A5.33,5.33,0,0,0,38,72.73Zm4.72-46.06H63.27V25.51H42.75ZM25.89,49.9V37.21c-1.58-.16-2.24,0-2.68.59,1.32.23,2,.89,2,2q0,3.73,0,7.45a2,2,0,0,1-1.66,1.94l-.51.1A3.66,3.66,0,0,0,25.89,49.9ZM80.14,37.17V49.91c1,0,2,.21,2.78-.6-1.64-.32-2.13-.93-2.13-2.56V40.52c0-1.82.37-2.31,2.11-2.77C82.1,37,81.14,37.17,80.14,37.17Z"/></g></g></svg>