<svg xmlns="http://www.w3.org/2000/svg" viewBox="0 0 194.98 41.29"><defs><style>.cls-1{font-size:35.7px;font-family:Nunito-SemiBold, Nunito;font-weight:700;}.cls-1,.cls-2{fill:#05738c;}.cls-3{fill:#fff;}</style></defs><title>busmapAsset 9</title><g id="Layer_2" data-name="Layer 2"><g id="Layer_1-2" data-name="Layer 1"><text class="cls-1" transform="translate(50.14 30.37)">Bus Map</text><path class="cls-2" d="M38.29,21.57A19.15,19.15,0,1,1,19.15,2.43,19.14,19.14,0,0,1,38.29,21.57Z"/><path class="cls-3" d="M28.92,20.78V28A2,2,0,0,1,27,30.15l-.11,0v.92a1.29,1.29,0,0,1-1.44,1.43H25a1.28,1.28,0,0,1-1.28-1.26c0-.35,0-.71,0-1.09H14.62c0,.07,0,.15,0,.23,0,.31,0,.62,0,.92a1.28,1.28,0,0,1-1.21,1.2h-.81a1.28,1.28,0,0,1-1.23-1.25v-.93c0-.12,0-.19-.16-.21a2,2,0,0,1-1.82-2.09V20.78H8.91A1.17,1.17,0,0,1,8,20.33a.37.37,0,0,0-.26-.12.74.74,0,0,1-.81-.83V16.91a.75.75,0,0,1,.82-.83c.07,0,.19,0,.22-.08A1.2,1.2,0,0,1,9,15.51h.33V12.67a2,2,0,0,1,2.06-2.06H26.87a2,2,0,0,1,2.05,2v2.86h.39a1.16,1.16,0,0,1,1,.48.3.3,0,0,0,.23.09.76.76,0,0,1,.83.86v2.43a.74.74,0,0,1-.82.84.34.34,0,0,0-.23.08,1.15,1.15,0,0,1-1.06.49Zm-1.74-7.6-.18,0c-2-.25-4.08-.42-6.12-.47a62.37,62.37,0,0,0-9.57.47c-.16,0-.21.07-.21.23,0,.71,0,1.43,0,2.15v5.34c0,.38.12.52.5.58l.17,0c2,.14,3.89.33,5.84.41a57.79,57.79,0,0,0,9-.42c.43-.06.55-.2.55-.62V13.18ZM24.57,28.69a1.93,1.93,0,1,0-1.94-1.92A1.94,1.94,0,0,0,24.57,28.69Zm-10.84,0a1.93,1.93,0,1,0-1.93-1.91A1.94,1.94,0,0,0,13.73,28.69Zm1.7-16.63h7.41v-.42H15.43ZM9.35,20.44V15.86c-.57-.06-.81,0-1,.22.48.08.73.32.73.73,0,.89,0,1.79,0,2.69a.7.7,0,0,1-.6.7l-.18,0A1.31,1.31,0,0,0,9.35,20.44Zm19.58-4.59v4.6c.36,0,.71.07,1-.22-.59-.12-.77-.34-.77-.93V17.06c0-.66.13-.84.76-1C29.64,15.78,29.29,15.85,28.93,15.85Z"/></g></g></svg>