<svg xmlns="http://www.w3.org/2000/svg" viewBox="0 0 16.76 21.34"><defs><style>.cls-1{fill:#05738c;}.cls-2{fill:#2fb99f;}</style></defs><title>gAsset 12</title><g id="Layer_2" data-name="Layer 2"><g id="Layer_1-2" data-name="Layer 1"><path class="cls-1" d="M10.67,3.18A4.07,4.07,0,0,0,13.1,10.5a7.69,7.69,0,0,0,1,2.24c.3.56.6,1.13.91,1.69a3.78,3.78,0,0,1,.39,1.47,1.18,1.18,0,0,1-.79,1.2,23.8,23.8,0,0,1-5.94,1.29A15.13,15.13,0,0,1,4.14,18C3.05,17.76,2,17.44.89,17.13A1.22,1.22,0,0,1,0,15.69a4.73,4.73,0,0,1,.54-1.6c.37-.66.73-1.33,1.09-2L1.73,12a4.53,4.53,0,0,0,.58-2.13c0-.87.11-1.74.18-2.61a6,6,0,0,1,4.05-5,4,4,0,0,1,3,.29A6.07,6.07,0,0,1,10.67,3.18Z"/><path class="cls-2" d="M9.42,6.43a3.67,3.67,0,1,1,3.65,3.67A3.67,3.67,0,0,1,9.42,6.43Zm5,1.7V7.52h-.78v-3a1.34,1.34,0,0,0-.86.14,2.67,2.67,0,0,1-.41.22l-.45.24.23.57.78-.43V7.53H12v.6Z"/><path class="cls-1" d="M9.44,19.58a1.76,1.76,0,1,1-3.37-.7c0-.12.1-.17.24-.15a15.3,15.3,0,0,0,2.79,0c.1,0,.15,0,.17.1l.21.75Z"/><path class="cls-1" d="M6.67,1.76A1.18,1.18,0,0,1,6.94.26a1.2,1.2,0,0,1,1.54,0,1.15,1.15,0,0,1,.21,1.45A4.31,4.31,0,0,0,6.67,1.76Z"/></g></g></svg>