<svg xmlns="http://www.w3.org/2000/svg" viewBox="0 0 34.22 34.22"><defs><style>.cls-1{fill:#f2f2f2;}</style></defs><title>helthAsset 6</title><g id="Layer_2" data-name="Layer 2"><g id="Layer_1-2" data-name="Layer 1"><path class="cls-1" d="M33.35,14.9a3,3,0,0,1,.87,2.21,3,3,0,0,1-3.08,3.09H20.2V31.07a3.07,3.07,0,0,1-.88,2.24,2.92,2.92,0,0,1-2.21.91,2.93,2.93,0,0,1-2.21-.91A3.1,3.1,0,0,1,14,31.07V20.2H3.09A3,3,0,0,1,0,17.11,3,3,0,0,1,3.09,14H14V3.09A3,3,0,0,1,17.11,0,3,3,0,0,1,20.2,3.09V14H31.14A3,3,0,0,1,33.35,14.9Z"/></g></g></svg>