<svg xmlns="http://www.w3.org/2000/svg" viewBox="0 0 61.31 61.31"><defs><style>.cls-1{fill:#2fb99f;}.cls-2{fill:#f2f2f2;}</style></defs><title>homeAsset 1</title><g id="Layer_2" data-name="Layer 2"><g id="Layer_1-2" data-name="Layer 1"><path class="cls-1" d="M61.31,30.65A30.66,30.66,0,1,1,30.65,0,30.66,30.66,0,0,1,61.31,30.65Z"/><path class="cls-2" d="M48.74,41.39v6.92A1.59,1.59,0,0,1,47,50.08c-3,0-6,0-9.08,0A1.69,1.69,0,0,1,36,48.21q0-5.43,0-10.86a1.62,1.62,0,0,0-1.83-1.83H27.32a1.61,1.61,0,0,0-1.78,1.8V48.18a1.71,1.71,0,0,1-1.93,1.9q-4.59,0-9.2,0a1.61,1.61,0,0,1-1.82-1.83q0-6.84,0-13.67a3.09,3.09,0,0,1,.9-2.24L30,15.14c.52-.55.9-.55,1.43,0q8.16,8.53,16.34,17.06a3.45,3.45,0,0,1,1,2.56C48.71,37,48.74,39.18,48.74,41.39Z"/><path class="cls-2" d="M54.21,30.32a1.24,1.24,0,0,1-.38.93l-1.52,1.59a1.12,1.12,0,0,1-1.83,0l-8.62-9L31.72,13.23a1.28,1.28,0,0,0-2.13,0L10.94,32.73a1.6,1.6,0,0,1-.65.5,1.09,1.09,0,0,1-1.2-.32c-.52-.54-1-1.07-1.55-1.61a1.28,1.28,0,0,1,0-1.95L16,20.59,29.64,6.28c.74-.77,1.3-.78,2,0q11,11.55,22.09,23.08A1.33,1.33,0,0,1,54.21,30.32Z"/><path class="cls-2" d="M45.3,12.55v4.52c0,.23,0,.49-.25.59s-.41-.11-.55-.27l-4-4.18a2.06,2.06,0,0,1-.61-1.53c0-1.2,0-2.4,0-3.61a1.16,1.16,0,0,1,1.3-1.3H44a1.15,1.15,0,0,1,1.3,1.3C45.3,9.56,45.3,11.06,45.3,12.55Z"/></g></g></svg>