<svg xmlns="http://www.w3.org/2000/svg" viewBox="0 0 256.39 37.99"><defs><style>.cls-1{font-size:32.84px;font-family:Nunito-SemiBold, Nunito;font-weight:700;}.cls-1,.cls-2{fill:#05738c;}.cls-3{fill:#fff;}</style></defs><title>locationAsset 10</title><g id="Layer_2" data-name="Layer 2"><g id="Layer_1-2" data-name="Layer 1"><text class="cls-1" transform="translate(45.17 27.94)">View Location</text><path class="cls-2" d="M35.22,19.84A17.61,17.61,0,1,1,17.62,2.23,17.6,17.6,0,0,1,35.22,19.84Z"/><path class="cls-3" d="M17.6,26.34c-.3-.38-.6-.75-.88-1.13a42,42,0,0,1-3.84-5.87,12.33,12.33,0,0,1-1.23-3.07A5.65,5.65,0,0,1,13.15,11a5.78,5.78,0,0,1,6.08-1.72,5.9,5.9,0,0,1,4.36,4.62,5.8,5.8,0,0,1-.28,3.32A20.32,20.32,0,0,1,21.45,21a47.39,47.39,0,0,1-3.74,5.27Zm0-7.62A3.62,3.62,0,1,0,14,15.1,3.63,3.63,0,0,0,17.61,18.72Z"/><path class="cls-3" d="M17.61,28.11c.52-.63,1.05-1.25,1.54-1.89s1.13-1.52,1.7-2.29a.25.25,0,0,1,.17-.1h3.3l1.95,6.1H9c.06-.22.13-.43.19-.63.56-1.76,1.13-3.53,1.68-5.29a.23.23,0,0,1,.26-.19h3.06a.27.27,0,0,1,.25.13c1,1.42,2,2.78,3.15,4.1C17.57,28.06,17.58,28.08,17.61,28.11Z"/><path class="cls-3" d="M17.61,17.59a2.49,2.49,0,1,1,2.49-2.48A2.48,2.48,0,0,1,17.61,17.59Z"/></g></g></svg>