<svg xmlns="http://www.w3.org/2000/svg" viewBox="0 0 225 26.43"><defs><style>.cls-1{font-size:22.66px;font-family:Nunito-SemiBold, Nunito;font-weight:700;}.cls-1,.cls-2{fill:#05738c;}.cls-3{fill:#fff;}</style></defs><title>student on boardAsset 2</title><g id="Layer_2" data-name="Layer 2"><g id="Layer_1-2" data-name="Layer 1"><text class="cls-1" transform="translate(25.83 19.27)">Students On Board</text><path class="cls-2" d="M24.3,14.28A12.15,12.15,0,1,1,12.15,2.13,12.15,12.15,0,0,1,24.3,14.28Z"/><path class="cls-3" d="M7.11,14.36a2.65,2.65,0,1,1,2.65-2.64A2.65,2.65,0,0,1,7.11,14.36Zm0-4.37a1.73,1.73,0,1,0,1.73,1.73A1.73,1.73,0,0,0,7.11,10Z"/><path class="cls-3" d="M10.42,17.22H3.8v-.46a3.31,3.31,0,1,1,6.62,0ZM4.76,16.3h4.7a2.39,2.39,0,0,0-4.7,0Z"/><path class="cls-3" d="M17.19,14.36a2.65,2.65,0,1,1,2.65-2.64A2.65,2.65,0,0,1,17.19,14.36Zm0-4.37a1.73,1.73,0,1,0,1.72,1.73A1.73,1.73,0,0,0,17.19,10Z"/><path class="cls-3" d="M20.5,17.22H13.88v-.46a3.31,3.31,0,1,1,6.62,0Zm-5.66-.92h4.7a2.39,2.39,0,0,0-4.7,0Z"/><path class="cls-3" d="M12.15,16.63A2.65,2.65,0,1,1,14.8,14,2.65,2.65,0,0,1,12.15,16.63Zm0-4.37A1.73,1.73,0,1,0,13.88,14,1.74,1.74,0,0,0,12.15,12.26Z"/><path class="cls-3" d="M15.46,19.49H8.84V19a3.31,3.31,0,1,1,6.62,0ZM9.8,18.57h4.7a2.39,2.39,0,0,0-4.7,0Z"/></g></g></svg>