<svg xmlns="http://www.w3.org/2000/svg" viewBox="0 0 129.79 24.57"><defs><style>.cls-1{fill:#fff;}.cls-2,.cls-3{fill:#a05425;}.cls-3{font-size:14px;font-family:Nunito-Bold, Nunito;font-weight:700;}</style></defs><title>view locationAsset 2</title><g id="Layer_2" data-name="Layer 2"><g id="Layer_1-2" data-name="Layer 1"><rect class="cls-1" width="129.79" height="24.57" rx="12.29" ry="12.29"/><path class="cls-2" d="M117.84,15.76l-.61-.78a29.07,29.07,0,0,1-2.65-4.05,8.6,8.6,0,0,1-.84-2.12,3.87,3.87,0,0,1,1-3.66A4,4,0,0,1,119,4a4.07,4.07,0,0,1,3,3.19,4,4,0,0,1-.19,2.29,14,14,0,0,1-1.29,2.6,33,33,0,0,1-2.57,3.63Zm0-5.26A2.49,2.49,0,1,0,115.35,8,2.5,2.5,0,0,0,117.84,10.5Z"/><path class="cls-2" d="M117.85,17c.36-.44.72-.86,1.06-1.3s.78-1.06,1.17-1.58a.17.17,0,0,1,.12-.07h2.28l1.34,4.2H111.87c0-.15.1-.29.14-.43.39-1.22.78-2.43,1.16-3.65a.16.16,0,0,1,.18-.13h2.11a.17.17,0,0,1,.17.09,35.27,35.27,0,0,0,2.18,2.82S117.82,17,117.85,17Z"/><path class="cls-2" d="M117.84,9.72A1.72,1.72,0,1,1,119.56,8,1.72,1.72,0,0,1,117.84,9.72Z"/><text class="cls-3" transform="translate(9.86 15.18)">View Location</text></g></g></svg>