<svg xmlns="http://www.w3.org/2000/svg" viewBox="0 0 11.94 14.45"><defs><style>.cls-1{fill:#fff;}</style></defs><title>your profileAsset 17</title><g id="Layer_2" data-name="Layer 2"><g id="Layer_1-2" data-name="Layer 1"><path class="cls-1" d="M6,12c-.21-.26-.42-.52-.61-.78a28.49,28.49,0,0,1-2.65-4A8.48,8.48,0,0,1,1.86,5a3.92,3.92,0,0,1,1-3.66A4,4,0,0,1,7.08.17a4.07,4.07,0,0,1,3,3.19,3.94,3.94,0,0,1-.19,2.3,14.26,14.26,0,0,1-1.28,2.6A34.09,34.09,0,0,1,6,11.89ZM6,6.71a2.49,2.49,0,0,0,0-5,2.49,2.49,0,1,0,0,5Z"/><path class="cls-1" d="M6,13.19c.36-.44.72-.86,1.06-1.3s.78-1.05,1.18-1.58a.16.16,0,0,1,.11-.07H10.6l1.34,4.21H0c.05-.15.09-.3.14-.44.38-1.21.77-2.43,1.16-3.65,0-.1.07-.13.17-.13H3.58a.19.19,0,0,1,.18.1c.67,1,1.4,1.91,2.17,2.82Z"/><path class="cls-1" d="M6,5.93a1.71,1.71,0,1,1,1.71-1.7A1.71,1.71,0,0,1,6,5.93Z"/></g></g></svg>